<?xml version="1.0" encoding="UTF-8"?><svg id="Layer_1" xmlns="http://www.w3.org/2000/svg" viewBox="0 0 516.9668 529.99902"><defs><style>.cls-1{fill:#e49b3b;stroke-width:0px;}.cls-2{fill:#010101;font-family:Bauhaus93, 'Bauhaus 93';font-size:108.45602px;}</style></defs><path class="cls-1" d="m208.73009,210.01305c-43.11128,0-79.11265,30.36769-87.78913,70.85793-.03013.09038-.03013.15064-.06025.24102-.03013.21089-.09038.39164-.12051.60252-.9038,4.8504-1.47621,9.8213-1.74735,14.85245-.03013.15064-.03013.27113-.03013.39164-.03013.93392-.06025,1.89797-.06025,2.86202,0,46.21431,34.91682,84.32456,79.86581,89.26535,3.25369.36151,6.56762.54226,9.9418.54226,49.58849,0,89.80762-40.21911,89.80762-89.80761s-40.21911-89.80761-89.80761-89.80759Zm0,157.38174c-3.37418,0-6.71825-.24102-9.9418-.75317-32.62718-4.79013-57.63233-32.86821-57.63233-66.82097,0-37.32695,30.24718-67.57413,67.57413-67.57413s67.57413,30.24718,67.57413,67.57413-30.27732,67.57413-67.57413,67.57413Z"/><path class="cls-1" d="m398.98005,67.54401l-31.90416-43.44267L349.36141,0H38.60475v154.03769h24.10134v-62.39234h394.56907v83.96304c-4.57927-.78329-9.27902-1.17494-14.12942-1.17494-39.28519,0-71.12908,26.54159-71.12908,59.2893s31.84389,59.2893,71.12908,59.2893c4.8504,0,9.55015-.39164,14.12942-1.17494v77.57619h-182.08563c39.85758-28.86136,64.89286-76.9134,61.51866-130.59913-4.76002-75.79871-67.09212-136.53409-142.9812-139.45638-85.10785-3.28382-155.12224,64.74222-155.12224,149.09691,0,76.13012,57.0298,138.97437,130.74977,148.07259h309.0093V67.54401h-79.38378Zm-336.27395,0V24.10134h274.24312l31.90414,43.44267H62.70609Zm147.34957,301.86927c-7.20027,1.32558-14.64157,2.01848-22.23349,2.01848s-15.0332-.69292-22.26361-2.01848c-57.30094-10.45396-100.71348-60.64499-100.71348-120.9586,0-67.90553,55.04144-122.94696,122.97709-122.94696,25.60767,0,49.37762,7.83293,69.08047,21.2393,32.50669,22.11298,53.86649,59.40981,53.86649,101.70764,0,53.14345-33.71176,98.45397-80.95038,115.59604-6.35673,2.31974-12.95447,4.12736-19.7631,5.36254l.00002.00005Zm233.09008-100.56286c-23.2578,0-42.11708-15.72613-42.11708-35.12771s18.85931-35.09758,42.11708-35.09758c4.94077,0,9.70079.72303,14.12942,2.04861v66.15818c-4.42862,1.29545-9.18865,2.01848-14.12942,2.0185Z"/><text class="cls-2" transform="translate(0 502.88477)"><tspan x="0" y="0">DompetKU</tspan></text></svg>